<svg width="20" height="20" viewBox="0 0 20 20" fill="none" xmlns="http://www.w3.org/2000/svg">
<path d="M10 18.3333C10.9167 18.3333 11.6667 17.5833 11.6667 16.6667H8.33334C8.33334 17.5833 9.08334 18.3333 10 18.3333ZM15 13.3333V9.16668C15 6.60834 13.6417 4.46668 11.25 3.90001V3.33334C11.25 2.64168 10.6917 2.08334 10 2.08334C9.30834 2.08334 8.75001 2.64168 8.75001 3.33334V3.90001C6.36668 4.46668 5.00001 6.60001 5.00001 9.16668V13.3333L3.33334 15V15.8333H16.6667V15L15 13.3333ZM13.3333 14.1667H6.66668V9.16668C6.66668 7.10001 7.92501 5.41668 10 5.41668C12.075 5.41668 13.3333 7.10001 13.3333 9.16668V14.1667Z" fill="#171746"/>
</svg>
